<svg width="55" height="55" viewBox="0 0 55 55" fill="none" xmlns="http://www.w3.org/2000/svg">
<path d="M1 8C1 3.58172 4.58172 0 9 0H47C51.4183 0 55 3.58172 55 8V27.5V46C55 50.4183 51.4183 54 47 54H9C4.58172 54 1 50.4183 1 46V8Z" fill="#FFBF00"/>
<path d="M29.0482 21.8526C29.15 22.0206 29.2315 22.1683 29.2315 22.1836C29.2315 22.1938 29.0584 22.2039 28.8496 22.2039C28.6408 22.2039 28.4676 22.1887 28.4676 22.1734C28.4676 22.1326 28.8241 21.5419 28.8496 21.5419C28.8546 21.5419 28.9463 21.6794 29.0482 21.8526Z" fill="black"/>
<path fill-rule="evenodd" clip-rule="evenodd" d="M28.7986 22.3414C28.8292 22.428 28.8343 22.428 28.9005 22.3363C28.9718 22.2447 28.982 22.2447 29.1042 22.3262C29.3232 22.4688 29.4403 22.7081 29.4199 22.9678C29.4097 23.0951 29.3843 23.2377 29.3639 23.2836C29.3384 23.3396 29.3435 23.3752 29.3792 23.3752C29.4097 23.3752 29.5625 23.4313 29.7255 23.5026C29.8654 23.5664 29.8978 23.7507 29.788 23.8584L29.7509 23.8947L29.673 23.9741C29.5643 24.085 29.3971 24.1145 29.257 24.0475C28.8394 23.8438 28.7579 23.9151 28.9565 24.297C29.0354 24.4548 29.0034 24.6455 28.8773 24.7689L28.8496 24.7961C28.6255 25.0201 28.6102 25.0252 28.5389 24.9336C28.5014 24.88 28.4836 24.8546 28.4752 24.8574C28.4676 24.8599 28.4676 24.8853 28.4676 24.9336C28.4676 25.122 28.1773 25.4836 27.4695 26.1863L26.9766 26.6756C26.8474 26.804 26.6519 26.8383 26.4866 26.7618C26.2778 26.6651 26.1963 26.6447 26.1454 26.6905C26.0843 26.7414 26.0996 26.7924 26.2269 27.0113C26.3143 27.168 26.287 27.3637 26.1602 27.4906L26.1301 27.5206C25.906 27.7396 25.8755 27.7549 25.8297 27.6734C25.7838 27.5919 25.7685 27.6072 25.7227 27.7854C25.6209 28.1725 25.2695 28.5238 24.8824 28.6257C24.3121 28.7785 23.7162 28.2081 23.7162 27.5002C23.7162 26.8178 24.2815 26.2169 24.857 26.2933C24.9366 26.3038 24.9941 26.2188 24.9546 26.1488L24.9384 26.1201C24.8722 26.0057 24.8902 25.8612 24.9824 25.7664L25.2084 25.5345C25.5801 25.1576 25.8857 24.959 26.1047 24.9539C26.1658 24.9539 26.2982 25.01 26.4051 25.0813L26.4328 25.1007C26.4693 25.1263 26.5148 25.0838 26.4917 25.0456C26.4663 24.9998 26.4307 24.9388 26.3951 24.8778C26.3595 24.8167 26.3236 24.7553 26.2982 24.7095C26.2439 24.613 26.2601 24.4923 26.338 24.4136L26.6597 24.0882C27.1588 23.5891 27.3574 23.4771 27.5968 23.5789C27.8565 23.6859 27.9634 24.0016 27.8361 24.2919C27.8107 24.3581 27.8412 24.3683 28.0042 24.353C28.0973 24.3435 28.1495 24.241 28.1024 24.1601L27.6334 23.354C27.5833 23.2679 27.5889 23.1603 27.6477 23.0799C27.7597 22.9169 28.325 22.4076 28.4829 22.3211C28.6408 22.2345 28.7579 22.2396 28.7986 22.3414ZM28.3771 23.2216C28.384 23.1857 28.4131 23.154 28.4677 23.0948C28.7528 22.7892 28.9565 23.1202 28.6815 23.436L28.6728 23.4456C28.6041 23.5211 28.4808 23.5028 28.4371 23.4105C28.3908 23.3098 28.3693 23.2629 28.3771 23.2216ZM27.0825 24.3784C26.9501 24.5159 26.9501 24.6025 27.0774 24.7451C27.1181 24.8011 27.3982 24.465 27.3982 24.358C27.3982 24.1951 27.2454 24.2052 27.0825 24.3784ZM27.388 25.2797C27.332 25.1575 27.3421 25.132 27.4949 24.9945C27.775 24.745 27.9176 24.9232 27.6783 25.2339C27.5204 25.4478 27.4644 25.4529 27.388 25.2797ZM26.7107 25.6311C26.7107 25.7482 26.6904 25.8959 26.67 25.9621C26.6343 26.064 26.6547 26.0844 26.8686 26.176C27.001 26.2371 27.1283 26.2728 27.1487 26.2677C27.1742 26.2575 27.0825 26.064 26.9501 25.8348L26.8171 25.6028C26.7881 25.5522 26.7107 25.5728 26.7107 25.6311ZM25.6388 25.9624C25.6425 25.9227 25.6769 25.8858 25.7481 25.8092C25.8245 25.7329 25.9162 25.6666 25.9468 25.6666C26.0333 25.6666 26.125 25.7787 26.125 25.8754C26.125 25.962 25.8907 26.2778 25.8296 26.2778C25.8093 26.2778 25.7532 26.2065 25.7023 26.1148C25.6582 26.0388 25.6353 25.9994 25.6388 25.9624ZM25.0555 26.6089C25.0249 26.6802 24.9791 26.7973 24.9536 26.8686C24.9129 26.9756 24.8772 26.9959 24.7754 26.9705C24.6888 26.9501 24.6124 26.9756 24.5105 27.0621C24.261 27.276 24.3578 27.77 24.6786 27.9177C24.8467 27.9941 25.0656 27.8362 25.1267 27.5867C25.1675 27.4237 25.193 27.4033 25.3967 27.3728C25.5138 27.3575 25.6156 27.332 25.6156 27.3168C25.6156 27.2811 25.1471 26.4816 25.1217 26.4816C25.1115 26.4816 25.0809 26.5376 25.0555 26.6089Z" fill="black"/>
<path fill-rule="evenodd" clip-rule="evenodd" d="M28.6764 12.7317C30.9222 12.9557 33.1578 13.7196 35.0115 14.8858C38.3828 17.0145 40.7152 20.3247 41.5759 24.19C41.8305 25.3511 41.8865 25.896 41.8865 27.3729C41.8865 28.427 41.8611 28.8904 41.7949 29.359C41.4893 31.4215 40.8324 33.2854 39.8037 34.9812C39.6458 35.246 39.5185 35.4701 39.5185 35.4854C39.5185 35.5006 40.0736 36.0761 40.756 36.7636C41.7389 37.7617 42.0291 38.0826 42.1615 38.3423C42.3907 38.7803 42.4722 39.1062 42.4722 39.6205C42.4722 40.4099 42.243 40.9701 41.6828 41.5354C41.3111 41.9122 40.8884 42.1617 40.4352 42.2636C40.1143 42.34 39.3861 42.3298 39.0856 42.2483C38.4592 42.0803 38.2402 41.9173 36.9365 40.6238L35.7041 39.4016L35.2305 39.7122C33.4532 40.8682 31.5435 41.5812 29.2569 41.9428C28.4625 42.065 26.512 42.0955 25.6463 41.9937C23.3088 41.7238 21.0935 40.9293 19.2245 39.702C18.8629 39.4627 18.5472 39.2641 18.5268 39.2641C18.4861 39.2641 17.6051 39.6053 14.7685 40.7205C13.969 41.0312 13.312 41.2858 13.3069 41.2807C13.2967 41.2705 13.5055 40.7205 14.4375 38.3474C14.5298 38.1105 14.6324 37.8484 14.7307 37.5974C14.8817 37.2116 15.0224 36.8521 15.0995 36.6516C15.2319 36.3205 15.3287 36.0354 15.3185 36.015C15.3083 35.9946 15.1301 35.7145 14.9111 35.3937C13.7754 33.6826 12.9963 31.6354 12.6551 29.4354C12.543 28.7275 12.4972 26.8381 12.5736 26.0488C12.874 22.9219 14.0504 20.1465 16.0977 17.7479C18.4301 15.0131 21.8523 13.2002 25.5139 12.7622C26.2217 12.6756 27.9532 12.6604 28.6764 12.7317ZM25.8959 13.1442C22.9014 13.4243 19.9986 14.6669 17.8241 16.597C17.0551 17.2845 16.9533 17.3813 16.4287 17.9975C14.5954 20.1465 13.5005 22.5197 13.0829 25.2697C12.9505 26.1354 12.9046 27.7141 12.981 28.5697C13.2102 31.0651 13.9945 33.2905 15.3644 35.3276L15.6324 35.7311C15.7361 35.8873 15.7594 36.0834 15.6954 36.2595C15.5783 36.5752 14.8908 38.3424 14.3764 39.6359C14.2811 39.8795 14.1967 40.1039 14.1399 40.2646C14.0824 40.4272 14.1492 40.4913 14.3115 40.4331C14.8438 40.2423 16.1991 39.7209 17.9718 39.0197C18.3676 38.8665 18.8133 38.9158 19.166 39.1519L19.2195 39.1877C23.0695 41.7901 27.9584 42.3604 32.2871 40.7155C33.2546 40.3489 35.2662 39.2692 35.3273 39.0859C35.3375 39.0553 34.9912 38.6836 34.5584 38.2507L34.0802 37.7756C33.8998 37.5965 33.6214 37.5615 33.4023 37.6905C32.45 38.2456 31.0801 38.7803 30.0463 39.0044C28.3963 39.3558 26.4509 39.3558 24.8009 39.0044C23.6449 38.7549 22.1121 38.1234 21.0681 37.4664C18.5065 35.8419 16.5968 33.2905 15.8125 30.4285C14.9977 27.4391 15.3593 24.2563 16.8361 21.5419C17.1773 20.9155 17.3403 20.6711 17.3912 20.7169C17.4167 20.7373 17.4167 20.722 17.3963 20.6863C17.3403 20.5896 18.1602 19.5303 18.7815 18.8988C19.5097 18.1655 20.0139 17.7479 20.7829 17.2387C22.331 16.21 23.981 15.5938 25.8959 15.3188C26.6037 15.222 28.3658 15.2373 29.1042 15.3493C30.7338 15.5988 32.2361 16.1387 33.5857 16.9535C34.4972 17.5086 35.0931 17.9771 35.9028 18.7868C36.5546 19.4336 36.631 19.5252 36.5394 19.5609C36.4579 19.5965 34.1509 20.1669 34.0898 20.1669C34.0797 20.1669 33.9269 20.0396 33.7537 19.8817C33.2852 19.4641 32.506 18.9345 31.8746 18.6137C29.0838 17.1826 25.9213 17.147 23.1408 18.5067C22.6009 18.7715 21.6028 19.3776 21.4908 19.5049C21.4755 19.5201 21.2769 19.6882 21.0528 19.8766C19.4945 21.16 18.2926 23.2072 17.8445 25.3359C17.6815 26.11 17.6204 27.5715 17.7222 28.4067C17.7326 28.4944 17.7435 28.5791 17.7539 28.6557C17.7848 28.8835 17.902 28.9295 18.0704 28.7729C18.3539 28.5092 18.839 28.0385 19.3824 27.4951C19.9715 26.9061 20.4896 26.3977 20.7576 26.1442C20.8829 26.0257 21.0125 26.0331 21.1354 26.1542C21.4708 26.4845 22.2264 27.2287 23.0949 28.0859L23.3051 28.2915C24.1358 29.1042 24.8354 29.7886 25.1191 30.0619C25.2083 30.1478 25.3008 30.1496 25.3902 30.0639C25.7883 29.682 27.0128 28.4713 28.4371 27.047L30.6216 24.8625C31.1621 24.3219 31.1713 23.4483 30.6422 22.8965C30.1176 22.3516 29.7051 21.8984 29.7255 21.8831C29.8019 21.8373 36.7176 20.1516 36.738 20.172C36.7482 20.1822 36.6107 20.7984 36.4324 21.5419C36.2542 22.2854 35.9334 23.6146 35.7195 24.4956C35.1134 26.9859 35.0523 27.2201 34.9759 27.2049C34.9403 27.1947 34.4972 26.7567 33.988 26.2373C33.4816 25.7141 32.6445 25.7078 32.1303 26.2234L29.1908 29.1706C27.057 31.3044 25.2847 33.0512 25.2542 33.0512C25.2236 33.0512 24.2306 32.0887 23.0542 30.9123L22.1251 29.9876C21.4509 29.3166 20.3606 29.3178 19.688 29.9905L18.888 30.7905C18.6395 31.039 18.5799 31.4197 18.7408 31.7322C19.0514 32.3535 19.6574 33.2396 20.075 33.6826C20.1793 33.7943 20.3665 33.7209 20.3671 33.5681L20.3704 32.8067V31.9624C20.3704 31.7425 20.4542 31.5309 20.6046 31.3706C20.7371 31.228 20.8796 31.116 20.9204 31.116C21.007 31.116 23.6093 33.6725 23.8384 33.9882C23.9343 34.1172 23.9861 34.2736 23.9861 34.4343V35.8492C23.9861 36.1744 24.1993 36.4612 24.5107 36.5549C25.1574 36.7586 25.5445 36.8401 25.6514 36.7993C25.7227 36.7688 25.7278 36.6618 25.7074 35.9132C25.6871 35.2614 25.6921 35.0322 25.7482 34.9354C25.7838 34.8641 26.5884 34.0391 27.5357 33.1021C28.1764 32.467 29.2656 32.9174 29.2707 33.8195L29.2722 34.1002L29.2811 36.4659C29.2818 36.6431 29.4452 36.775 29.6185 36.7382C29.8019 36.6975 30.1736 36.5905 30.4435 36.4989C30.7388 36.4014 30.9391 36.1266 30.9415 35.8157L30.9859 30.0397C30.9876 29.8266 31.0621 29.6206 31.1972 29.4558C31.3144 29.3183 31.7829 28.8396 32.2361 28.3965L32.2953 28.3385C32.7194 27.9222 33.3997 27.9254 33.8199 28.3456C34.3059 28.8349 34.5787 29.4966 34.5787 30.1862V33.4281C34.5787 33.565 34.7489 33.6284 34.8384 33.5248C35.2204 33.0817 35.8621 32.0938 36.1523 31.5081C36.8653 30.0465 37.1658 28.6053 37.1097 26.9146C37.0792 25.9317 36.9722 25.2646 36.682 24.3326C36.562 23.9427 36.55 23.5276 36.6471 23.1314L36.8959 22.1174C37.0125 21.6313 37.1216 21.1906 37.1975 20.8888C37.2662 20.6158 37.4017 20.5792 37.5517 20.8174C37.707 21.0637 37.9059 21.4039 38.0621 21.6998C38.7445 22.9882 39.2079 24.4956 39.3607 25.9317C39.432 26.5683 39.432 27.9229 39.3607 28.5595C39.1926 30.128 38.6477 31.8289 37.8838 33.1683C37.7304 33.4391 37.7765 33.779 37.9966 33.9991L38.3778 34.3803C38.7954 34.7979 39.1468 35.1391 39.1621 35.1391C39.2181 35.1391 39.5593 34.5688 39.931 33.8405C41.581 30.622 41.9324 26.8789 40.9139 23.3651C40.3181 21.3178 39.2232 19.3725 37.7463 17.7479C35.913 15.7262 33.3972 14.2137 30.7593 13.5465C29.1959 13.1493 27.4236 13.0016 25.8959 13.1442Z" fill="black"/>
</svg>
