<svg width="556" height="321" viewBox="0 0 556 321" fill="none" xmlns="http://www.w3.org/2000/svg">
<path fill-rule="evenodd" clip-rule="evenodd" d="M340.5 140.035C455.455 140.035 548.645 221.056 548.644 321H495.481C495.481 246.583 426.094 186.256 340.5 186.256C254.906 186.256 185.519 246.583 185.519 321H132.355C132.355 221.056 225.545 140.035 340.5 140.035Z" fill="#FFBF00"/>
<path fill-rule="evenodd" clip-rule="evenodd" d="M340.5 58C507.566 58 643 175.749 643 321H589.837C589.837 201.277 478.205 104.221 340.5 104.221C202.795 104.221 91.1635 201.276 91.1634 321H38C38 175.749 173.434 58 340.5 58Z" fill="#FFBF00"/>
<path fill-rule="evenodd" clip-rule="evenodd" d="M340.5 218.34C405.713 218.34 458.578 264.303 458.578 321H405.415C405.415 289.83 376.351 264.562 340.5 264.562C304.649 264.562 275.586 289.83 275.586 321H222.422C222.422 264.303 275.287 218.34 340.5 218.34Z" fill="#FFBF00"/>
</svg>
