<svg width="52" height="52" viewBox="0 0 52 52" fill="none" xmlns="http://www.w3.org/2000/svg">
<path d="M28.5213 15.8323C28.6972 16.1226 28.838 16.3777 28.838 16.4041C28.838 16.4216 28.5389 16.4392 28.1782 16.4392C27.8176 16.4392 27.5185 16.4129 27.5185 16.3865C27.5185 16.3161 28.1342 15.2957 28.1782 15.2957C28.187 15.2957 28.3454 15.5332 28.5213 15.8323Z" fill="black"/>
<path fill-rule="evenodd" clip-rule="evenodd" d="M28.0903 16.6767C28.143 16.8263 28.1518 16.8263 28.2662 16.6679C28.3893 16.5096 28.4069 16.5096 28.618 16.6504C28.9963 16.8966 29.1986 17.3101 29.1634 17.7587C29.1458 17.9786 29.1018 18.2249 29.0666 18.3041C29.0227 18.4008 29.0315 18.4624 29.093 18.4624C29.1458 18.4624 29.4097 18.5591 29.6912 18.6823C29.9329 18.7925 29.9888 19.1109 29.7991 19.2969L29.7352 19.3596L29.6006 19.4968C29.4128 19.6883 29.1239 19.7392 28.8819 19.6235C28.1606 19.2717 28.0199 19.3948 28.3629 20.0545C28.4992 20.3271 28.444 20.6565 28.2262 20.8696L28.1782 20.9166C27.7912 21.3036 27.7648 21.3124 27.6417 21.1541C27.5769 21.0616 27.5462 21.0176 27.5316 21.0225C27.5185 21.0268 27.5185 21.0707 27.5185 21.1541C27.5185 21.4795 27.0171 22.1041 25.7944 23.3179L24.9432 24.163C24.7199 24.3847 24.3823 24.4441 24.0967 24.3119C23.7361 24.1448 23.5954 24.1096 23.5074 24.1888C23.4018 24.2767 23.4282 24.3647 23.6481 24.7429C23.7991 25.0136 23.752 25.3516 23.5329 25.5707L23.481 25.6226C23.094 26.0008 23.0412 26.0272 22.962 25.8865C22.8829 25.7457 22.8565 25.7721 22.7773 26.08C22.6014 26.7485 21.9944 27.3554 21.3259 27.5314C20.3407 27.7953 19.3116 26.8101 19.3116 25.5874C19.3116 24.4087 20.2879 23.3707 21.2819 23.5027C21.4196 23.5208 21.5187 23.3739 21.4506 23.253L21.4227 23.2036C21.3082 23.0059 21.3393 22.7563 21.4986 22.5927L21.8889 22.192C22.531 21.5411 23.0588 21.198 23.437 21.1892C23.5426 21.1892 23.7713 21.286 23.956 21.4091L24.0037 21.4427C24.0668 21.487 24.1455 21.4135 24.1055 21.3476C24.0616 21.2685 24.0001 21.1631 23.9386 21.0577C23.8771 20.9523 23.8152 20.8461 23.7713 20.767C23.6776 20.6004 23.7056 20.3918 23.84 20.2559L24.3958 19.6939C25.2579 18.8318 25.6009 18.6383 26.0143 18.8142C26.4629 18.999 26.6477 19.5443 26.4278 20.0457C26.3838 20.1601 26.4366 20.1777 26.718 20.1513C26.8788 20.1348 26.969 19.9577 26.8877 19.818L26.0776 18.4257C25.9911 18.277 26.0008 18.0911 26.1023 17.9522C26.2958 17.6707 27.2722 16.7911 27.5449 16.6416C27.8176 16.492 28.0199 16.5008 28.0903 16.6767ZM27.3622 18.1971C27.3741 18.135 27.4244 18.0803 27.5186 17.978C28.0112 17.4502 28.363 18.0219 27.888 18.5673L27.8729 18.5839C27.7543 18.7144 27.5413 18.6827 27.4658 18.5233C27.3859 18.3493 27.3486 18.2684 27.3622 18.1971ZM25.126 20.1951C24.8973 20.4326 24.8973 20.5822 25.1172 20.8285C25.1875 20.9252 25.6713 20.3447 25.6713 20.1599C25.6713 19.8785 25.4075 19.896 25.126 20.1951ZM25.6537 21.7519C25.5569 21.5408 25.5745 21.4968 25.8384 21.2593C26.3222 20.8283 26.5685 21.1362 26.1551 21.6728C25.8824 22.0422 25.7856 22.051 25.6537 21.7519ZM24.4839 22.3589C24.4839 22.5612 24.4487 22.8163 24.4135 22.9307C24.352 23.1066 24.3871 23.1418 24.7566 23.3001C24.9853 23.4057 25.2052 23.4672 25.2404 23.4584C25.2844 23.4408 25.126 23.1066 24.8973 22.7108L24.6676 22.31C24.6175 22.2225 24.4839 22.2581 24.4839 22.3589ZM22.6323 22.9312C22.6388 22.8625 22.6981 22.7988 22.8212 22.6666C22.9532 22.5346 23.1115 22.4203 23.1643 22.4203C23.3138 22.4203 23.4722 22.6138 23.4722 22.7809C23.4722 22.9305 23.0675 23.4758 22.962 23.4758C22.9268 23.4758 22.83 23.3527 22.7421 23.1944C22.6658 23.063 22.6263 22.995 22.6323 22.9312ZM21.6248 24.0478C21.572 24.1709 21.4928 24.3733 21.4488 24.4964C21.3785 24.6811 21.3169 24.7163 21.141 24.6723C20.9914 24.6371 20.8595 24.6811 20.6836 24.8307C20.2526 25.2001 20.4197 26.0534 20.9739 26.3084C21.2641 26.4404 21.6424 26.1677 21.7479 25.7367C21.8183 25.4552 21.8623 25.42 22.2141 25.3672C22.4164 25.3409 22.5924 25.2969 22.5924 25.2705C22.5924 25.2089 21.7831 23.8279 21.7391 23.8279C21.7215 23.8279 21.6688 23.9247 21.6248 24.0478Z" fill="black"/>
<path fill-rule="evenodd" clip-rule="evenodd" d="M27.8791 0.0780106C31.7582 0.465048 35.6198 1.7845 38.8217 3.79885C44.6448 7.4757 48.6735 13.1933 50.1601 19.8697C50.5999 21.8752 50.6967 22.8164 50.6967 25.3674C50.6967 27.1882 50.6527 27.9887 50.5383 28.7979C50.0105 32.3604 48.8758 35.5799 47.099 38.509C46.8263 38.9664 46.6064 39.3535 46.6064 39.3799C46.6064 39.4063 47.5652 40.4002 48.7439 41.5877C50.4416 43.3118 50.9429 43.866 51.1716 44.3146C51.5675 45.0711 51.7082 45.634 51.7082 46.5225C51.7082 47.8859 51.3124 48.8535 50.3448 49.8299C49.7027 50.4808 48.9726 50.9118 48.1897 51.0877C47.6355 51.2197 46.3777 51.2021 45.8587 51.0613C44.7767 50.7711 44.3985 50.4896 42.1466 48.2553L40.018 46.1442L39.1999 46.6808C36.13 48.6776 32.8314 49.909 28.8818 50.5336C27.5096 50.7447 24.1406 50.7975 22.6453 50.6215C18.6078 50.1553 14.7814 48.7831 11.5531 46.6632C10.9286 46.2498 10.3832 45.9067 10.348 45.9067C10.2777 45.9067 8.75591 46.4961 3.85638 48.4225C2.47536 48.959 1.34064 49.3989 1.33184 49.3901C1.31425 49.3725 1.6749 48.4225 3.28462 44.3234C3.4441 43.9143 3.62135 43.4614 3.79104 43.0279C4.05189 42.3615 4.2949 41.7406 4.42813 41.3942C4.65684 40.8225 4.82397 40.3299 4.80638 40.2947C4.78878 40.2595 4.48092 39.7757 4.10267 39.2215C2.1411 36.266 0.795267 32.7299 0.205915 28.9299C0.0123957 27.7072 -0.0667707 24.4438 0.0651739 23.0803C0.584156 17.6794 2.6161 12.8854 6.15221 8.74236C10.1809 4.01875 16.092 0.887275 22.4166 0.130795C23.6392 -0.0187435 26.63 -0.0451373 27.8791 0.0780106ZM23.0764 0.790627C17.9041 1.27442 12.8903 3.42072 9.13424 6.75451C7.806 7.94201 7.63007 8.10914 6.72406 9.17349C3.55739 12.8855 1.66618 16.9846 0.944889 21.7346C0.716184 23.23 0.637016 25.9568 0.768961 27.4346C1.16479 31.7448 2.51942 35.5888 4.88563 39.1073L5.34853 39.8044C5.52762 40.0741 5.56802 40.4128 5.45739 40.717C5.25507 41.2624 4.06757 44.3147 3.17915 46.549C3.01447 46.9698 2.86882 47.3574 2.77066 47.6349C2.67132 47.9158 2.78664 48.0264 3.06707 47.9259C3.98654 47.5964 6.32739 46.6958 9.38933 45.4846C10.073 45.22 10.8428 45.3052 11.452 45.713L11.5444 45.7749C18.1944 50.2698 26.6389 51.255 34.1157 48.4138C35.787 47.7804 39.2616 45.9156 39.3671 45.599C39.3847 45.5462 38.7866 44.9041 38.0389 44.1564L37.2129 43.3358C36.9014 43.0263 36.4204 42.9659 36.0421 43.1888C34.3972 44.1476 32.031 45.0712 30.2453 45.4582C27.3954 46.0652 24.0352 46.0652 21.1852 45.4582C19.1884 45.0272 16.5407 43.9365 14.7375 42.8017C10.3129 39.9957 7.01433 35.5888 5.6597 30.6453C4.2523 25.4818 4.87683 19.9841 7.42776 15.2957C8.01711 14.2138 8.29859 13.7916 8.38655 13.8707C8.43054 13.9059 8.43054 13.8795 8.39535 13.8179C8.29859 13.6508 9.71479 11.8212 10.7879 10.7304C12.0458 9.46377 12.9166 8.74248 14.2449 7.86285C16.919 6.086 19.769 5.02164 23.0764 4.54664C24.2991 4.37951 27.3426 4.4059 28.618 4.59942C31.4329 5.03044 34.0278 5.96285 36.3588 7.37025C37.9333 8.32905 38.9625 9.13831 40.3611 10.5369C41.487 11.654 41.619 11.8124 41.4606 11.874C41.3199 11.9355 37.3352 12.9207 37.2296 12.9207C37.212 12.9207 36.9481 12.7008 36.6491 12.4281C35.8398 11.7068 34.494 10.792 33.4032 10.2378C28.5829 7.76609 23.1204 7.70451 18.3176 10.0531C17.3852 10.5105 15.6611 11.5573 15.4676 11.7772C15.4412 11.8036 15.0981 12.0939 14.7111 12.4193C12.0194 14.636 9.9435 18.1721 9.16943 21.849C8.88795 23.186 8.78239 25.7105 8.95831 27.1531C8.97629 27.3046 8.99501 27.4509 9.01295 27.5831C9.06634 27.9767 9.2688 28.056 9.5596 27.7855C10.0493 27.3301 10.8873 26.5172 11.8259 25.5786C12.8433 24.5612 13.7384 23.683 14.2013 23.2451C14.4177 23.0404 14.6415 23.0533 14.8537 23.2624C15.4331 23.8329 16.7382 25.1184 18.2384 26.599L18.6015 26.9542C20.0363 28.3579 21.2446 29.5399 21.7346 30.012C21.8888 30.1605 22.0485 30.1636 22.203 30.0155C22.8906 29.3558 25.0056 27.2647 27.4657 24.8045L31.239 21.0313C32.1727 20.0975 32.1885 18.5886 31.2745 17.6355C30.3685 16.6943 29.656 15.9115 29.6912 15.8851C29.8231 15.8059 41.7685 12.8943 41.8037 12.9295C41.8213 12.9471 41.5838 14.0115 41.2759 15.2957C40.968 16.58 40.4139 18.8758 40.0444 20.3976C38.9977 24.699 38.8921 25.1036 38.7602 25.0772C38.6986 25.0596 37.9333 24.3031 37.0537 23.4059C36.179 22.5022 34.7331 22.4913 33.845 23.3819L28.7676 28.4726C25.0819 32.1582 22.0208 35.1754 21.968 35.1754C21.9153 35.1754 20.2 33.5129 18.168 31.4809L16.5633 29.8838C15.3987 28.7247 13.5156 28.7269 12.3537 29.8888L10.9719 31.2706C10.5426 31.6999 10.4398 32.3573 10.7176 32.8971C11.2542 33.9703 12.3009 35.5008 13.0222 36.2661C13.2024 36.4589 13.5256 36.3322 13.5267 36.0683L13.5324 34.7531V33.2948C13.5324 32.915 13.6771 32.5495 13.937 32.2726C14.1657 32.0263 14.412 31.8328 14.4824 31.8328C14.6319 31.8328 19.1268 36.2485 19.5227 36.7939C19.6883 37.0166 19.7778 37.2868 19.7778 37.5644V40.0084C19.7778 40.57 20.1459 41.0653 20.6838 41.2272C21.8009 41.5791 22.4694 41.7198 22.6542 41.6494C22.7773 41.5967 22.7861 41.4119 22.7509 40.1189C22.7157 38.993 22.7245 38.5971 22.8213 38.43C22.8829 38.3068 24.2727 36.8818 25.9088 35.2633C27.0156 34.1663 28.8968 34.9442 28.9056 36.5025L28.9083 36.9874L28.9237 41.0736C28.9248 41.3797 29.207 41.6074 29.5065 41.5439C29.8231 41.4735 30.4653 41.2888 30.9315 41.1305C31.4415 40.9622 31.7875 40.4876 31.7916 39.9505L31.8683 29.9737C31.8711 29.6057 32 29.2498 32.2333 28.9652C32.4356 28.7277 33.2449 27.9008 34.0278 27.1355L34.1299 27.0353C34.8625 26.3163 36.0376 26.3217 36.7634 27.0476C37.6029 27.8927 38.0741 29.0356 38.0741 30.2268V35.8264C38.0741 36.063 38.368 36.1724 38.5227 35.9934C39.1824 35.2281 40.2907 33.5216 40.7921 32.5101C42.0236 29.9855 42.5426 27.4962 42.4458 24.5758C42.393 22.8781 42.2083 21.7258 41.7069 20.1161C41.4997 19.4426 41.4789 18.7255 41.6468 18.0411L42.0764 16.2897C42.2779 15.4501 42.4663 14.689 42.5974 14.1677C42.716 13.6961 42.95 13.6329 43.2092 14.0442C43.4774 14.4698 43.821 15.0573 44.0907 15.5684C45.2694 17.7939 46.0699 20.3976 46.3338 22.8781C46.4569 23.9777 46.4569 26.3175 46.3338 27.417C46.0435 30.1263 45.1023 33.0642 43.7829 35.3777C43.5178 35.8454 43.5975 36.4326 43.9777 36.8128L44.6361 37.4712C45.3574 38.1925 45.9643 38.7818 45.9907 38.7818C46.0875 38.7818 46.6768 37.7967 47.319 36.5388C50.169 30.9795 50.7759 24.5142 49.0166 18.4448C47.9875 14.9087 46.0963 11.5485 43.5454 8.74248C40.3787 5.25035 36.0333 2.63785 31.4768 1.48553C28.7764 0.799422 25.7153 0.544331 23.0764 0.790627Z" fill="black"/>
</svg>
